<?xml version="1.0" encoding="utf-8"?>
<!-- Generator: Adobe Illustrator 24.0.1, SVG Export Plug-In . SVG Version: 6.00 Build 0)  -->
<svg version="1.1" id="d6af144a-e925-4ddf-847c-b38e3205da29"
	 xmlns="http://www.w3.org/2000/svg" xmlns:xlink="http://www.w3.org/1999/xlink" x="0px" y="0px" viewBox="0 0 903.8 657.1"
	 style="enable-background:new 0 0 903.8 657.1;" xml:space="preserve">
<style type="text/css">
	.st0{opacity:0.1;enable-background:new    ;}
	.st1{opacity:0.1;fill:#4DF44D;enable-background:new    ;}
	.st2{fill:none;stroke:#535461;stroke-width:2;stroke-miterlimit:10;}
	.st3{fill:#FCAA32;}
	.st4{fill:#FFCB64;}
	.st5{fill:#6C63FF;}
	.st6{fill:#40414D;}
	.st7{fill:#DFE6F5;}
	.st8{fill:#FFD77C;stroke:#FFAB50;stroke-miterlimit:10;}
	.st9{fill:#F6C6CD;}
	.st10{fill:url(#SVGID_1_);}
	.st11{fill:#B8616E;}
	.st12{opacity:5.000000e-02;enable-background:new    ;}
	.st13{fill:#F8BDC5;}
	.st14{fill:#758AC8;}
	.st15{fill:#5E52AD;}
	.st16{fill:#916168;}
	.st17{opacity:0.1;fill:#FFFFFF;enable-background:new    ;}
	.st18{fill:url(#SVGID_2_);}
	.st19{fill:#594C76;}
	.st20{fill:#8B9CD1;}
	.st21{fill:#EB6475;}
	.st22{opacity:0.1;}
	.st23{fill:#FFFFFF;}
	.st24{fill:#FFD77C;stroke:#FFAB50;stroke-width:0.25;stroke-miterlimit:10;}
</style>
<title>eating_together</title>
<ellipse class="st0" cx="63.9" cy="514.6" rx="45" ry="16"/>
<ellipse class="st0" cx="790.8" cy="580.7" rx="45" ry="16"/>
<path class="st1" d="M532.9,18.4c-68.5,26.4-142.7,27.7-211.7,2.8C223.5-14.1,95.9-23.1,48.6,138.6C-32.1,414.8,133,513.4,133,513.4
	s115.3,25.8,179.1,72.5c90.7,66.3,201.7,88.5,306.3,57.4c66.9-19.9,124.2-52.5,140.6-105.9c45.8-149.3,16.7-239.1,99.7-278.4
	s36.8-185.2-22.2-188.5s-198,30.5-241-36.8C580.2,9.7,556.8,9.2,532.9,18.4z"/>
<path class="st2" d="M789,583c0,0,12-40.8-2.3-70.9c-6.1-12.6-7.9-26.8-5.2-40.5c1.3-6.5,3.2-12.9,5.7-19"/>
<path class="st3" d="M777.9,433.4c0,4.8,8.8,18.9,8.8,18.9s8.8-14.1,8.8-18.9c0-4.9-3.9-8.8-8.8-8.8
	C781.8,424.6,777.9,428.5,777.9,433.4L777.9,433.4z"/>
<path class="st3" d="M763.4,460.2c2.6,4.1,17.7,11.1,17.7,11.1s-0.3-16.6-2.9-20.7c-2.6-4.1-8.1-5.2-12.2-2.6
	C761.9,450.7,760.7,456.2,763.4,460.2L763.4,460.2z"/>
<path class="st3" d="M764.1,508.7c4.5,2.3,21.5,0.7,21.5,0.7s-8.9-14.6-13.3-16.9c-4.5-2.3-9.9-0.5-12.2,4S759.6,506.5,764.1,508.7
	L764.1,508.7z"/>
<path class="st3" d="M772.3,540.8c3.9,2.9,20.4,4.2,20.4,4.2s-6.1-15.4-10-18.3c-3.9-2.9-9.4-2.1-12.3,1.8
	C767.6,532.5,768.4,538,772.3,540.8L772.3,540.8z"/>
<path class="st3" d="M799.5,472.3c-3.5,3.4-19.7,6.9-19.7,6.9s4-16.1,7.5-19.5c3.5-3.4,9-3.3,12.4,0.2S803,468.9,799.5,472.3z"/>
<path class="st3" d="M808.7,512.9c-4.3,2.2-20.9,0.7-20.9,0.7s8.6-14.2,12.9-16.3c4.3-2.2,9.6-0.4,11.8,3.9
	C814.8,505.5,813,510.8,808.7,512.9L808.7,512.9z"/>
<path class="st3" d="M813.8,557.7c-4,3-21.1,4.3-21.1,4.3s6.3-15.9,10.3-18.9c4-3,9.7-2.1,12.7,1.9
	C818.7,549.1,817.8,554.7,813.8,557.7z"/>
<path class="st2" d="M63.9,514.7c0,0,25.7-87.1-4.8-151.3c-12.8-26.9-17-57.1-11.1-86.4c2.8-13.9,6.9-27.4,12.2-40.5"/>
<path class="st3" d="M41.2,195.9c0,10.7,19.3,41.7,19.3,41.7s19.3-31,19.3-41.7c0-10.7-8.6-19.3-19.3-19.4S41.2,185.2,41.2,195.9
	C41.2,195.9,41.2,195.9,41.2,195.9L41.2,195.9z"/>
<path class="st3" d="M9.3,255.1c5.8,9,38.9,24.5,38.9,24.5s-0.6-36.5-6.4-45.5c-6-8.8-18-11.1-26.9-5.1
	C6.3,234.8,3.9,246.3,9.3,255.1L9.3,255.1z"/>
<path class="st3" d="M10.6,356.2c9.5,4.8,45.9,1.5,45.9,1.5s-19-31.2-28.5-36c-9.5-4.8-21.2-1-26,8.6
	C-2.7,339.8,1.1,351.4,10.6,356.2L10.6,356.2L10.6,356.2z"/>
<path class="st3" d="M28.9,432.5c8.6,6.3,45,9.2,45,9.2s-13.4-34-22-40.3c-8.6-6.4-20.7-4.5-27,4S20.3,426.1,28.9,432.5L28.9,432.5z
	"/>
<path class="st3" d="M88.7,281.6c-7.7,7.4-43.4,15.1-43.4,15.1s8.7-35.5,16.4-42.9c7.7-7.5,19.9-7.3,27.4,0.4S96.4,274.1,88.7,281.6
	L88.7,281.6L88.7,281.6z"/>
<path class="st4" d="M109,371.1c-9.5,4.8-45.9,1.5-45.9,1.5s19-31.2,28.5-36c9.5-4.8,21.2-1,26,8.6S118.5,366.3,109,371.1L109,371.1
	L109,371.1z"/>
<path class="st3" d="M116.7,460.7c-8.6,6.3-45,9.2-45,9.2s13.4-34,22-40.3c8.6-6.4,20.7-4.5,27,4S125.3,454.4,116.7,460.7
	L116.7,460.7z"/>
<path class="st5" d="M379.2,299.8l-55.7-7.2c-2.3-0.3-4-1.1-3.9-1.9l0,0c0.1-0.8,2-1.1,4.3-0.8l55.6,8c1.5,0.2,2.7,0.8,2.6,1.3l0,0
	C382,299.7,380.7,300,379.2,299.8z"/>
<path class="st5" d="M379.5,300.7l-55.9-5.8c-2.3-0.2-4.2,0.2-4.3,0.9l0,0c-0.1,0.8,1.7,1.5,4,1.7l56,5c1.5,0.1,2.8-0.2,2.8-0.7l0,0
	C382.2,301.4,381,300.9,379.5,300.7z"/>
<path class="st5" d="M463.4,342.8l55.7-7.2c2.3-0.3,4-1.1,3.9-1.9l0,0c-0.1-0.8-2-1.1-4.3-0.8l-55.6,8c-1.5,0.2-2.7,0.8-2.6,1.3l0,0
	C460.5,342.7,461.8,343,463.4,342.8z"/>
<path class="st5" d="M463,343.7l55.9-5.8c2.3-0.2,4.2,0.2,4.3,0.9l0,0c0.1,0.8-1.7,1.5-4,1.7l-56,5c-1.5,0.1-2.8-0.2-2.8-0.7l0,0
	C460.3,344.4,461.5,343.9,463,343.7z"/>
<rect x="265.4" y="402.6" class="st6" width="13.6" height="194.9"/>
<rect x="562.3" y="402.6" class="st6" width="13.6" height="194.9"/>
<path class="st7" d="M260.3,386.8h314c12.2,0,22,9.8,22,22v2.9l0,0h-358l0,0v-2.9C238.3,396.6,248.1,386.8,260.3,386.8z"/>
<path class="st0" d="M259.3,386.8h314c12.2,0,22,9.8,22,22v2.9l0,0h-358l0,0v-2.9C237.3,396.6,247.1,386.8,259.3,386.8z"/>
<path class="st7" d="M260.3,382.2h314c12.2,0,22,9.8,22,22v2.9l0,0h-358l0,0v-2.9C238.3,392.1,248.1,382.2,260.3,382.2z"/>
<circle class="st8" cx="417.3" cy="339.2" r="27.2"/>
<circle class="st8" cx="417.3" cy="339.2" r="21.5"/>
<circle class="st8" cx="417.3" cy="339.2" r="16.4"/>
<circle class="st8" cx="417.3" cy="339.2" r="9.2"/>
<circle class="st8" cx="401.4" cy="353.9" r="27.2"/>
<circle class="st8" cx="401.4" cy="353.9" r="21.5"/>
<circle class="st8" cx="401.4" cy="353.9" r="16.4"/>
<circle class="st8" cx="401.4" cy="353.9" r="9.2"/>
<circle class="st8" cx="433.1" cy="353.9" r="27.2"/>
<circle class="st8" cx="433.1" cy="353.9" r="21.5"/>
<circle class="st8" cx="433.1" cy="353.9" r="16.4"/>
<circle class="st8" cx="433.1" cy="353.9" r="9.2"/>
<path class="st5" d="M360.6,346h113.3l0,0v5.3c0,22.1-17.9,40-40,40h-33.3c-22.1,0-40-17.9-40-40V346L360.6,346z"/>
<path class="st0" d="M463.7,346c-0.6,24.6-20.7,44.2-45.3,44.2h-22.5c3.3,0.7,6.6,1.1,10,1.1h22.7c25,0,45.3-20.3,45.3-45.3
	c0,0,0,0,0,0H463.7z"/>
<rect x="274.5" y="551" class="st6" width="294.6" height="13.6"/>
<rect x="152.2" y="503.6" class="st6" width="11.9" height="108.2"/>
<rect x="246.1" y="503.6" class="st6" width="11.9" height="108.2"/>
<path class="st9" d="M267.5,485.8c0,7.2-24.5,13.1-54.7,13.1s-53.5-5.8-53.5-13.1s23.3-13.1,53.5-13.1S267.5,478.6,267.5,485.8z"/>
<path class="st6" d="M142.7,485.8h124.8l0,0v10.9c0,5.8-4.7,10.5-10.5,10.5l0,0h-96.3c-9.9,0-18-8.1-18-18V485.8L142.7,485.8z"/>
<path class="st6" d="M121.5,360.7l2.6-0.6c3.8-0.9,7.5,1.5,8.4,5.3l31.2,138.1l0,0l-3.9,0.9c-6.8,1.5-13.6-2.7-15.1-9.6L116.2,369
	C115.3,365.3,117.7,361.5,121.5,360.7C121.5,360.7,121.5,360.7,121.5,360.7z"/>
<rect x="672.4" y="505.5" class="st6" width="11.9" height="108.2"/>
<rect x="578.5" y="505.5" class="st6" width="11.9" height="108.2"/>
<path class="st9" d="M569,487.7c0,7.2,24.5,13.1,54.7,13.1s53.5-5.8,53.5-13.1s-23.3-13.1-53.5-13.1S569,480.5,569,487.7z"/>
<path class="st6" d="M675.8,509.1h-96.3c-5.8,0-10.5-4.7-10.5-10.5v-10.9l0,0h124.8l0,0v3.4C693.8,501,685.8,509.1,675.8,509.1z"/>
<path class="st6" d="M676.8,506.3l-3.9-0.9l0,0l31.2-138.1c0.9-3.8,4.6-6.1,8.4-5.3l2.6,0.6c3.8,0.9,6.1,4.6,5.3,8.4l-28.4,125.8
	C690.4,503.5,683.6,507.8,676.8,506.3z"/>
<linearGradient id="SVGID_1_" gradientUnits="userSpaceOnUse" x1="736.0203" y1="-76.1318" x2="736.0203" y2="350.8201" gradientTransform="matrix(1 0 0 -1 -148.11 536.57)">
	<stop  offset="0" style="stop-color:#808080;stop-opacity:0.25"/>
	<stop  offset="0.54" style="stop-color:#808080;stop-opacity:0.12"/>
	<stop  offset="1" style="stop-color:#808080;stop-opacity:0.1"/>
</linearGradient>
<path class="st10" d="M681.1,445.6l3.5-1.1c0,0-6-40.1-5.9-76c0-1,0-2.1,0-3.1c0.1-2.2,0.2-4.5,0.3-6.6c0.1-2.8,0.2-5.4,0.2-8
	c0.3-34.6-13.3-49.2-13.3-49.2s-16-22.8-25.6-27.3c-0.8-2.6-1.8-5.9-2.6-9.8c0.3-0.2,0.6-0.4,0.9-0.6c4-2.9,7.8-6.1,11.3-9.5
	c4.9-4.6,9.6-10.2,9.4-16.6c0-0.6,0-1.2-0.1-1.9c-0.9-7.6-8.9-13.4-12.1-20.7c-2.7-6.1-1.9-12.9-4.3-19s-10.6-11.9-16.8-8.7
	c-2.3,1.2-3.7,3.3-5.6,4.9c-4.7,4-12.4,4.4-18.9,2.5s-8.4-9.2-17.5-9.3c0.8,0.3,1.6,0.6,2.3,1.1c-0.8-0.1-1.5-0.2-2.3-0.2
	c3.8,1.2,6.5,4.5,6.9,8.4c0,0.2,0,0.5-0.1,0.7c-3.6,2-8.4,0.8-12.7,0.8s-9.3,2.1-8.8,5.7c-0.1,0.4-0.1,0.8,0,1.2
	c0.6,2.7,4.2,4.7,4.6,7.2c0,0.1,0,0.1,0,0.2c-8,4-16.7,6.5-25.7,7.5c-0.3,0-0.2,0.4,0.3,0.9h-0.3c-1.6,0.2,9.8,9.2,11.1,9.8
	c4.8,2.2,10.5,3.8,15.5,5.4l0.4,0.1c-1.7,3.9-2.6,8.2-2.6,12.5c0,15.4,11.1,28.3,26.1,32c2.8,3.3,5.7,6.9,8.4,10.4H607
	c0,0-17.2,22.9-16.7,57.2c0,4.3,0.2,8.6,0.7,12.8c-11.1-0.6-34.9-3.5-53-16.8c-24.4-17.9-51.7-12.5-46-1.8s34.8,19.6,39.5,20.5
	c0.4,0.1,1.5,0.3,2.9,0.7c-5.8,1.1-9.7,3-9.5,5.6c0.5,4.9,25.4,20.5,40.4,21.4c9.9,0.6,21.9,3.7,31.3,6.3
	c0.9,20.5-4.1,26.7-4.1,26.7s1.5,0.9,3.9,2.2l-1,3c-6.1,3.5-13.6,7.2-20.5,8.7c-8.7,1.8-17.2,4.6-25.2,8.4l-33.8,16.3
	c-6.1,2.8-10.4,8.7-11.2,15.4c-0.7,6.9,1.3,15.6,12.7,22.5c0.7,5.6,4.1,12.2,13.2,18.2c17.5,11.6,63.5,46.5,69.8,51.3
	c0.1,8.5-1,25.6-11.5,28.2c-13.2,3.3-2.6,16,8.1,15.5c2.5,1,5.3,1.2,7.9,0.6c11.3-2.7,52.6-17,55.4-38.4c0.1-0.9,0.2-1.9,0.2-2.8
	c0.2-3.7-0.7-7.3-2.6-10.4c0.4,1,0.8,2,1.1,3c-3.4-7.8-11.8-12.7-18.2-15.5c0-0.1,0-0.2,0-0.2c-1-0.4-2-0.7-2.8-1
	c0-0.6,0-1.2-0.1-1.7l-64.8-44.7c0,0,28.2-23.2,57.3-19.7s33.8-1.7,33.8-1.7s14.9-14.2,16.4-30.6l0.9-0.3
	C681.3,448.5,681.2,447.5,681.1,445.6z"/>
<path class="st11" d="M601.9,561.9c0,0,2.7,29.2-10.6,32.7s-0.9,17.7,9.7,15s49.5-16.8,52.2-38s-26.5-28.3-26.5-28.3L601.9,561.9z"
	/>
<path class="st12" d="M601.9,561.9c0,0,2.7,29.2-10.6,32.7s-0.9,17.7,9.7,15s49.5-16.8,52.2-38s-26.5-28.3-26.5-28.3L601.9,561.9z"
	/>
<path class="st11" d="M607.2,562.8c0,0,2.7,29.2-10.6,32.7s-0.9,17.7,9.7,15s49.5-16.8,52.2-38S632,544.2,632,544.2L607.2,562.8z"/>
<path class="st0" d="M634.6,545.1l-24.7,18.6c0,0,0.1,1.3,0.2,3.3c9.3-2.6,29.7-9.4,30-20C638.3,546.2,636.5,545.6,634.6,545.1z"/>
<rect x="608.5" y="291" class="st13" width="10.6" height="8"/>
<path class="st14" d="M609,419.6c0,0-16.8,13.2-30.7,16.4c-8.2,1.8-16.2,4.6-23.8,8.3l-31.8,16.2c-5.9,3-9.8,8.7-10.5,15.2
	c-0.9,9,2.7,20.8,24.3,27.9l68.1,56.6l21.2-17.7l-72.5-55.7l55.7-34.5L609,419.6z"/>
<path class="st0" d="M609,419.6c0,0-16.8,13.2-30.7,16.4c-8.2,1.8-16.2,4.6-23.8,8.3l-31.8,16.2c-5.9,3-9.8,8.7-10.5,15.2
	c-0.9,9,2.7,20.8,24.3,27.9l68.1,56.6l21.2-17.7l-72.5-55.7l55.7-34.5L609,419.6z"/>
<path class="st13" d="M599.3,360.4c0,0-32.7,0.9-55.7-16.8s-48.6-12.4-43.3-1.8s32.7,19.5,37.1,20.3s68.1,18.6,68.1,18.6
	L599.3,360.4z"/>
<path class="st12" d="M599.3,360.4c0,0-32.7,0.9-55.7-16.8s-48.6-12.4-43.3-1.8s32.7,19.5,37.1,20.3s68.1,18.6,68.1,18.6
	L599.3,360.4z"/>
<path class="st14" d="M602.8,411.6l-10.6,31.8c0,0-59.7,36.7-64.5,41.5c-3.8,3.8-8.8,18.6,8.8,30.9s66.3,51.3,66.3,51.3
	s37.1-8,34.5-23l-61-44.2c0,0,26.5-23,53.9-19.5s31.8-1.8,31.8-1.8s21.2-21.2,14.1-41.5S602.8,411.6,602.8,411.6z"/>
<path class="st13" d="M589.5,267.6c0,0,30.1,32.7,28.3,42.4s23.9-28.3,23.9-28.3s-8-19.5-6.2-40.7L589.5,267.6z"/>
<path class="st0" d="M615.8,297.6c2.1-2.2,4.2-4.2,6.5-6.2c4.5-3.7,8.7-7.9,12.4-12.4c6.2-8,29.2,26.5,29.2,26.5
	s14.1,15.9,12.4,53.9s2.2,88.8,2.2,88.8l-5.3,1.5c-9.1,3-19.2,1.6-27.1-3.8c-7.1-4.9-16-10-22.8-10.5c-13.3-0.9-25.2-8.4-25.2-8.4
	s5.8-13.7-3.1-57.9s13.7-75.6,13.7-75.6S610.3,303.2,615.8,297.6z"/>
<path class="st15" d="M681.5,444.3l-5.3,1.8l-3.2,1c-9.1,3.1-19.2,1.6-27.1-3.8c-7-4.9-16-10-22.8-10.5
	c-13.2-0.9-28.2-10.6-28.2-10.6s8.8-11.5,0-55.7s13.7-75.6,13.7-75.6s1.8,9.6,7.2,3.9c2-2.2,4.2-4.2,6.5-6.2
	c4.5-3.7,8.7-7.9,12.4-12.4c6.2-8,29.2,26.5,29.2,26.5s14.1,15.9,12.4,53.9c-0.2,4-0.3,8.1-0.3,12.3
	C675.8,404.7,681.5,444.3,681.5,444.3z"/>
<path class="st0" d="M631.1,357.7l0.9,19.5c0,0-46.9,2.6-56.6-7.1s26.5,28.6,34.5,30.9c7.5,2.2,26.9,4.2,37.1,4.4
	c5.9,0.2,11.4-3.1,14-8.5c1.2-2.6,1.6-5.5,1.1-8.3c-1.8-11.5,0-36.3,0-36.3L631.1,357.7z"/>
<path class="st13" d="M631.1,355.9l0.9,19.5c0,0-46.9,2.6-56.6-7.1s-44.9-7.6-44.2,0c0.4,4.9,23.9,20.3,38,21.2s32.7,7.4,40.7,9.7
	c7.5,2.2,26.9,4.2,37.1,4.4c5.9,0.2,11.4-3.1,14-8.5c1.2-2.6,1.6-5.5,1.1-8.3c-1.8-11.5,0-36.3,0-36.3L631.1,355.9z"/>
<path class="st0" d="M641.7,299.4c0,0-20.3,2.6-17.7,32.7s6.2,32.7,6.2,32.7s30.1-2.6,33.6-3.5s1.8-33.6,1.8-33.6
	S664.7,298.5,641.7,299.4z"/>
<path class="st15" d="M641.7,298.5c0,0-20.3,2.6-17.7,32.7s6.2,32.7,6.2,32.7s30.1-2.6,33.6-3.5s1.8-33.6,1.8-33.6
	S664.7,297.6,641.7,298.5z"/>
<path class="st0" d="M634.2,260c-1.4-7,1.5-9.2,2.2-18.1l-46,26.5c0,0,5.3,5.7,11.3,13.1c2.7,0.7,5.4,1,8.2,1
	C621.9,282.6,628.5,269.6,634.2,260z"/>
<circle class="st13" cx="609" cy="249" r="32.7"/>
<path class="st0" d="M617.2,239c-5,3.2-5.1,10.4-1.8,15.4s8.8,8.3,14.1,11.4c1.5,0.9,3.3,1.8,5,1.6c1.3-0.3,2.6-0.9,3.6-1.8
	c3.7-2.9,7.3-6,10.7-9.4c4.9-4.8,9.5-10.7,8.8-17.3c-0.9-7.6-8.3-13.3-11.4-20.4c-2.5-6-1.8-12.7-4-18.9s-10-11.8-15.8-8.6
	c-2.2,1.2-3.5,3.3-5.3,4.9c-4.5,3.9-11.7,4.3-17.8,2.5s-7.9-9.1-16.4-9.2c4.2,1.5,7.1,5.9,6.4,9.9c-3.4,1.9-7.9,0.8-12,0.8
	s-9,2.2-8.3,5.9c0.6,3,5,5.2,4.3,8.2c-7.5,4-15.7,6.5-24.1,7.4c-1.5,0.2,9.2,9.1,10.4,9.7c4.5,2.1,9.8,3.7,14.6,5.4
	C591.1,240.9,604.2,242.5,617.2,239z"/>
<path class="st16" d="M617.2,238.1c-5,3.2-5.1,10.4-1.8,15.4s8.8,8.3,14.1,11.4c1.5,0.9,3.3,1.8,5,1.6c1.3-0.3,2.6-0.9,3.6-1.8
	c3.7-2.9,7.3-6,10.7-9.4c4.9-4.8,9.5-10.7,8.8-17.3c-0.9-7.6-8.3-13.3-11.4-20.4c-2.5-6-1.8-12.7-4-18.9s-10-11.8-15.8-8.6
	c-2.2,1.2-3.5,3.3-5.3,4.9c-4.5,3.9-11.7,4.3-17.8,2.5s-7.9-9.1-16.4-9.2c4.2,1.5,7.1,5.9,6.4,9.9c-3.4,1.9-7.9,0.8-12,0.8
	s-9,2.2-8.3,5.9c0.6,3,5,5.2,4.3,8.2c-7.5,4-15.7,6.5-24.1,7.4c-1.5,0.2,9.2,9.1,10.4,9.7c4.5,2.1,9.8,3.7,14.6,5.4
	C591.1,240,604.2,241.6,617.2,238.1z"/>
<path class="st17" d="M656.2,559.5c1.4,3.3,1.9,6.9,1.4,10.4c-2.7,21.2-41.5,35.4-52.2,38c-5.6,1.4-11.7-1.9-14.2-5.8
	c1.6,4.6,8.7,9.2,15.1,7.6c10.6-2.7,49.5-16.8,52.2-38C659.1,567.4,658.3,563.2,656.2,559.5z"/>
<linearGradient id="SVGID_2_" gradientUnits="userSpaceOnUse" x1="381.4018" y1="-60.3038" x2="381.4018" y2="345.7056" gradientTransform="matrix(1 0 0 -1 -148.11 536.57)">
	<stop  offset="0" style="stop-color:#808080;stop-opacity:0.25"/>
	<stop  offset="0.54" style="stop-color:#808080;stop-opacity:0.12"/>
	<stop  offset="1" style="stop-color:#808080;stop-opacity:0.1"/>
</linearGradient>
<path class="st18" d="M375.2,583.6L375.2,583.6c-0.8-1.8-4.9-5.3-24.7-6c-13.5-0.5-18.1-7.7-19.4-14.6c4.5-0.6,7.9-1.4,9.1-2.5
	c0,0-0.1-0.3-0.2-0.9l0.2-0.1c-0.9-5-1.3-10.1-1.4-15.2c0-4.4,0.4-8.7,1.4-13c0.6-2.8,0.8-5.7,0.7-8.6c0.1-17-5.9-46.9-5.9-46.9
	l-0.8-24.8c-0.2-6.3-3.8-12-9.4-14.9c-2-1-4.1-1.6-6.4-1.6c0,0-31.3-4.9-59.5-7.6c-2-1.6-9-6-25.2-3.5l-9.3-27.2
	c-0.1-0.3-0.1-0.7-0.2-1c0.3-3.5,2.6-8.7,13.4-9l2.3,2c0,0,0.4-0.8,1.1-2c13.4-0.1,86.1-0.9,89.9,0c4.1,1,40.3-7.1,41.3-8.1
	c14.1-13.7-41.4-7.1-41.4-7.1c-5.5,0.9-23.1-0.2-41.1-1.6c8.9-13.4,17.3-58.8,17.3-58.8s32-16.1,22.7-25.2s-37.2,20.2-37.2,20.2
	s-11.4,33.3-16.5,43.4c-2,4-4.6,4.8-6.9,4.4c1-0.8,1.7-1.3,1.7-1.3s-22.7-18.1-24.8-25.2c-0.4-1.2-0.9-2.3-1.5-3.3
	c-1.1-6.4-3-12.7-7.7-16.9c-0.8-0.8-1.6-1.6-2.6-2.3c-1.3-0.9-2.7-1.7-3.9-2.7l0,0c0.7-3.1,1.5-6.3,2.3-9.4c16.9-2,30-16,30-33
	c0-2.6-0.3-5.1-0.9-7.6c5.1,0.3,10.1-2,13-6.3c3.4-5.1,3.3-12,0.4-17.4c-1.2-2.2-2.7-4.1-4.6-5.8c-2.9-3-6.5-5.2-10.5-6.6
	c-3.4-1.2-7.2-1.9-9.9-4.2c-1.2-1.6-2.3-3.3-3.3-5c-1.1-1.7-2.5-3.3-4-4.7c-5-5.1-12.1-8.3-19.3-9.7c-8.8-1.7-17.8-1.1-26.7-0.5
	c-3.3,0.2-7.2,0.8-8.7,3.7c-1.1,2.2-0.4,4.8-0.5,7.2c-0.5,7.7-9.3,12-17,13.9s-16.9,3.5-20.6,10.3c-3.4,6.1-1,13.5,0.1,20.4
	c1.8,12.1-0.9,24.4-7.5,34.6c-3.4,5.2-7.7,9.8-10.4,15.3c-3,6.2-3.6,13.2-1.9,19.9c0.5,1.9,1.2,3.9,0.9,5.9
	c-0.4,1.6-1.2,3.1-2.3,4.4c-9.3,11.5-23,18.6-37.7,19.5c0.6,2,1.8,3.8,3.4,5.2c2.1,2,4.5,3.7,7.1,4.9c7,3.5,14.3,6.2,21.9,8.1
	c5.1,1.3,10.4,2.2,15.6,1.3s10.3-3.9,12.4-8.5c1.2-2.7,1.4-5.8,2.5-8.6c2.2-5.5,7.6-9.1,11.3-13.9c-1.2,12.2-1.8,24.5-1.8,36.8
	c0,3.9,0,7.3,0,10.5c0,13.9-1,23.5-9.6,40.8c-1,1.8-1.5,3.9-1.3,6c-0.4,2.3,0.5,4.6,2.3,6.1c-0.6,3.5-0.9,7-0.9,10.5
	c-0.1,12.6,4.1,29.6,26.8,33.9l40.3-2c0,0,56.9-11.1,72.4-3c2.6,0.6,4.5,2.9,4.5,5.6c0,0.8-0.2,1.7-0.4,2.5
	c-0.4,2.6-0.6,5.3-0.5,7.9c-0.1,17,3.6,55.6,3.6,55.6v16.4c-2.6,3.9-5.8,9.6-5.4,13.8c0,0.1,0,0.2,0,0.3s0,0.3,0.1,0.4
	s0,0.2,0.1,0.3s0.1,0.2,0.1,0.3c0,0.1,0.1,0.2,0.1,0.3c0,0.1,0.1,0.2,0.1,0.3s0.1,0.3,0.2,0.4l0.1,0.2c0.1,0.2,0.3,0.4,0.4,0.5
	c5.2,6,31,17.6,39.3,17.1c8.8-0.5,38.2,1,39.3-12.1C375.4,584.4,375.4,583.9,375.2,583.6z"/>
<path class="st19" d="M301.8,558.3c0,0-12,15-7,21s30,17.5,38,17c8.5-0.5,37,1,38-12c0,0,2-6-24-7s-18-28-18-28L301.8,558.3z"/>
<path class="st0" d="M158.7,432.3c0,0-12,41,24,48l39-2c0,0,55-11,70-3c0,0,6,1,4,9s3,62,3,62v18c0,0,34,0,38-4c0,0-3-16,0-29
	s-5-54-5-54l-0.8-24.7c-0.1-6.2-3.6-11.9-9.1-14.8c-1.9-1-4-1.5-6.1-1.6c0,0-68-11-92-9S158.7,432.3,158.7,432.3z"/>
<path class="st20" d="M158.7,431.3c0,0-12,41,24,48l39-2c0,0,55-11,70-3c0,0,6,1,4,9s3,62,3,62v18c0,0,34,0,38-4c0,0-3-16,0-29
	s-5-54-5-54l-0.8-24.7c-0.1-6.2-3.6-11.9-9.1-14.8c-1.9-1-4-1.5-6.1-1.6c0,0-68-11-92-9S158.7,431.3,158.7,431.3z"/>
<path class="st13" d="M261.8,350.3c0,0,8,10,13,0s16-43,16-43s27-29,36-20s-22,25-22,25s-11,61-21,62s-25,0-25,0l-5-11L261.8,350.3z
	"/>
<path class="st12" d="M261.8,350.3c0,0,8,10,13,0s16-43,16-43s27-29,36-20s-22,25-22,25s-11,61-21,62s-25,0-25,0l-5-11L261.8,350.3z
	"/>
<path class="st21" d="M225.7,300.3c0,0,18,21,20,28s24,25,24,25s-16,12-13,18c3,6-21-20-21-20l-28-41L225.7,300.3z"/>
<path class="st0" d="M225.7,300.3c0,0,18,21,20,28s24,25,24,25s-16,12-13,18c3,6-21-20-21-20l-28-41L225.7,300.3z"/>
<path class="st13" d="M237.7,276.3c0,0-9,29-9,40s-38-3-37-9s22-28,23-37S237.7,276.3,237.7,276.3z"/>
<path class="st0" d="M207.7,296.3c0,0-35-9-40,42s4,57-11,88s102,4,102,4s-6-7-25-4l-9-27c0,0-3-12,14-12s9-35,9-35s-9-30-14-33
	S219.7,298.3,207.7,296.3z"/>
<path class="st21" d="M207.7,294.3c0,0-35-9-40,42s4,57-11,88s102,4,102,4s-6-7-25-4l-9-27c0,0-3-12,14-12s9-35,9-35s-9-30-14-33
	S219.7,296.3,207.7,294.3z"/>
<path class="st13" d="M242.7,366.3c0,0,73,8,85,6c0,0,53.6-6.6,40,7c-1,1-36,9-40,8s-89,0-89,0l-1-10L242.7,366.3z"/>
<path class="st0" d="M186.7,341.3l53,48c0,0,10-20,13-20s-36-59-36-59s-10-12-16-6S176.7,306.3,186.7,341.3z"/>
<path class="st21" d="M185.7,339.3l53,48c0,0,10-20,13-20s-36-59-36-59s-10-12-16-6S175.7,304.3,185.7,339.3z"/>
<circle class="st13" cx="228.8" cy="261.3" r="33"/>
<path class="st0" d="M257.7,253c5.6,2.2,12.5-0.4,15.8-5.5c3.3-5,3.2-11.9,0.4-17.2c-2.8-5.3-7.9-9.2-13.6-11.2
	c-3.4-1.2-7.3-1.9-9.9-4.4c-1.7-1.6-2.7-3.7-3.9-5.7c-4.7-7.3-13-11.6-21.5-13.3s-17.2-1.1-25.9-0.5c-3.2,0.2-7,0.8-8.5,3.7
	c-1.1,2.2-0.4,4.8-0.5,7.2c-0.5,7.7-9,11.9-16.5,13.8s-16.1,3.6-19.8,10.3c-3.3,6.1-0.9,13.4,0.1,20.3c1.7,11.9-0.9,24.1-7.3,34.2
	c-3.3,5.1-7.5,9.7-10.1,15.2c-2.9,6.2-3.5,13.1-1.9,19.7c0.5,1.9,1.2,3.9,0.8,5.9c-0.4,1.6-1.2,3.1-2.3,4.4
	c-8.9,11.3-22.1,18.4-36.5,19.4c1.1,4.3,5.3,7,9.2,9c6.7,3.5,13.8,6.2,21.2,8.1c4.9,1.3,10.1,2.2,15.1,1.3s9.9-3.8,12-8.5
	c1.2-2.7,1.4-5.8,2.4-8.5c2.4-6.2,8.8-9.9,12.2-15.6c3.3-5.4,4.5-6.1,5.4-12.4s2.7-13.1,7.8-16.8c5.4-3.9,13-3.1,19-0.2
	s9.7,1.8,14.7,6.2c8.8,7.6,18.6,14,29.2,18.8c-1-8.7-2.6-18.5-9.7-23.6c-2-1.5-4.5-2.6-5.6-4.9c-1.7-3.6,1.2-8.1-0.1-11.9
	s-6.3-5.2-8.5-8.6c-1.9-2.9-1.4-6.9,0.4-9.9s4.5-5.2,7.3-7.3c2.5-1.9,5-3.7,7.5-5.5c2.3-1.4,4.3-3.2,6.1-5.3c1-1.4,1.7-4.4,3-5.3
	C249,245.9,254.4,251.7,257.7,253z"/>
<path class="st15" d="M256.7,252c5.6,2.2,12.5-0.4,15.8-5.5c3.3-5,3.2-11.9,0.4-17.2c-2.8-5.3-7.9-9.2-13.6-11.2
	c-3.4-1.2-7.3-1.9-9.9-4.4c-1.7-1.6-2.7-3.7-3.9-5.7c-4.7-7.3-13-11.6-21.5-13.3s-17.2-1.1-25.9-0.5c-3.2,0.2-7,0.8-8.5,3.7
	c-1.1,2.2-0.4,4.8-0.5,7.2c-0.5,7.7-9,11.9-16.5,13.8s-16.1,3.6-19.8,10.3c-3.3,6.1-0.9,13.4,0.1,20.3c1.7,11.9-0.9,24.1-7.3,34.2
	c-3.3,5.1-7.5,9.7-10.1,15.2c-2.9,6.2-3.5,13.1-1.9,19.7c0.5,1.9,1.2,3.9,0.8,5.9c-0.4,1.6-1.2,3.1-2.3,4.4
	c-8.9,11.3-22.1,18.4-36.5,19.4c1.1,4.3,5.3,7,9.2,9c6.7,3.5,13.8,6.2,21.2,8.1c4.9,1.3,10.1,2.2,15.1,1.3s9.9-3.8,12-8.5
	c1.2-2.7,1.4-5.8,2.4-8.5c2.4-6.2,8.8-9.9,12.2-15.6c3.3-5.4,4.5-6.1,5.4-12.4s2.7-13.1,7.8-16.8c5.4-3.9,13-3.1,19-0.2
	s9.7,1.8,14.7,6.2c8.8,7.6,18.6,14,29.2,18.8c-1-8.7-2.6-18.5-9.7-23.6c-2-1.5-4.5-2.6-5.6-4.9c-1.7-3.6,1.2-8.1-0.1-11.9
	s-6.3-5.2-8.5-8.6c-1.9-2.9-1.4-6.9,0.4-9.9s4.5-5.2,7.3-7.3c2.5-1.9,5-3.7,7.5-5.5c2.3-1.4,4.3-3.2,6.1-5.3c1-1.4,1.7-4.4,3-5.3
	C248,244.9,253.4,250.7,256.7,252z"/>
<g class="st22">
	<path class="st23" d="M327.6,557.1c0.1-2.7,0.5-5.3,1.1-7.9l-0.5,0.2C327.8,552,327.5,554.5,327.6,557.1z"/>
	<path class="st23" d="M332.8,594.3c-8,0.5-33-11-38-17c-0.7-0.8-1.1-1.8-1.2-2.8c-0.3,1.7,0.1,3.5,1.2,4.8c5,6,30,17.5,38,17
		c8.5-0.5,37,1,38-12c0.1-0.4,0-0.7-0.1-1.1C368.3,595.2,341,593.8,332.8,594.3z"/>
</g>
<rect x="372.3" y="295.8" class="st24" width="1" height="41"/>
<rect x="373.3" y="295.8" class="st24" width="1" height="41"/>
<rect x="374.3" y="295.8" class="st24" width="1" height="41"/>
<rect x="375.3" y="295.8" class="st24" width="1" height="41"/>
<rect x="376.3" y="295.8" class="st24" width="1" height="41"/>
<rect x="377.3" y="295.8" class="st24" width="1" height="41"/>
<rect x="378.3" y="295.8" class="st24" width="1" height="41"/>
</svg>
